# xmcd
# Track frame offsets:
# 150
# 20163
# 36020
# 47342
# 59185
# 80453
# 95681
# 120415
# 136880
# 151954
# 162047
# 176121
# 189786
# 211691
# 220789
# 236166
# 252832
# 266530
# 278916
# 296350
# 308714
#
# Disc length: 4373 seconds
# Revision: 0
# Processed by: cddbd v1.5.1PL2 Copyright (c) Steve Scherf et al.
# Submitted via: VisiTrax 2.10.0.248 - For more info visit www.synapsa.com
#
DISCID=23111315
DTITLE=Corey Lemoine - Corey Lemoine: The Soulful Side
DYEAR=1900
DGENRE=
TTITLE0=A Change is going to Come
TTITLE1=All these Things
TTITLE2=Before I grow too Old
TTITLE3=I've been Lovin' you Too Long
TTITLE4=I Can't Stop Lovin' You
TTITLE5=I've Got Dreams to Remember
TTITLE6=James Brown Rip
TTITLE7=Kiddnapper
TTITLE8=Making love and never making Friends
TTITLE9=Mr. Pittiful
TTITLE10=Never goin to fall in love again
TTITLE11=A love that could naver last
TTITLE12=Out in left field
TTITLE13=Philly Walk
TTITLE14=Shake
TTITLE15=Sladge Hammer
TTITLE16=Then you can tell me good bye
TTITLE17=When something with my Baby
TTITLE18=Try a Little Tenderness
TTITLE19=When She Touches Me
TTITLE20=You Are My Sunshine
EXTD=
EXTT0=
EXTT1=
EXTT2=
EXTT3=
EXTT4=
EXTT5=
EXTT6=
EXTT7=
EXTT8=
EXTT9=
EXTT10=
EXTT11=
EXTT12=
EXTT13=
EXTT14=
EXTT15=
EXTT16=
EXTT17=
EXTT18=
EXTT19=
EXTT20=
PLAYORDER=
